<svg width="423" height="341" viewBox="0 0 423 341" version="1.1" xmlns="http://www.w3.org/2000/svg"><g id="Ant-Design-Pro-3.0" stroke="none" stroke-width="1" fill="none" fill-rule="evenodd"><g id="404" transform="translate(-484 -221)"><g id="Group-4" transform="translate(464 222)"><g id="Group-5" transform="translate(75.417 .164)" stroke="#A3B1BF" stroke-width="1.62" opacity=".6" stroke-linejoin="round" stroke-dasharray="12.15"><path d="M169.575 288.89c-65.928 0-119.374-53.434-119.374-119.35 0-65.915 53.446-119.35 119.374-119.35 65.929 0 119.374 53.435 119.374 119.35 0 65.916-53.445 119.35-119.374 119.35z" id="Stroke-1"/><path d="M169.406 338.555C76.027 338.555.329 262.873.329 169.513.33 76.154 76.027.471 169.406.471c93.378 0 169.076 75.683 169.076 169.042 0 93.36-75.698 169.042-169.076 169.042z" id="Stroke-3"/></g><path id="Fill-6" fill="#F5F5F5" transform="rotate(22 106.915 199.433)" d="M97.711 198.803l18.407-8.572-8.573 18.403z"/><path id="Stroke-7" stroke="#A3B1BF" stroke-width="1.62" stroke-linejoin="round" d="M98.617 195.401l20.278-1.052-14.843 13.851z"/><path id="Fill-8" transform="rotate(22 58.996 219.767)" d="M38.854 215.184l15.558-15.555 24.726 24.721-15.558 15.555z"/><path id="Stroke-9" stroke="#A3B1BF" stroke-width="1.62" stroke-linejoin="round" d="M42.038 207.972l20.251-8.594 13.665 32.184-20.251 8.594z"/><path id="Fill-10" fill="#F5F5F5" transform="rotate(22 71.226 214.578)" d="M51.464 198.658l3.839-3.838 35.685 35.677-3.84 3.838z"/><path id="Stroke-11" stroke="#A3B1BF" stroke-width="1.62" fill="#F0F2F5" stroke-linejoin="round" d="M58.867 192.414l4.997-2.12 19.721 46.447-4.997 2.12z"/><path id="Fill-12" transform="rotate(22 84.698 273.903)" d="M56.077 259.69l14.405-14.402 42.838 42.828-14.405 14.403z"/><path id="Stroke-13" stroke="#A3B1BF" stroke-width="1.62" stroke-linejoin="round" d="M63.485 250.004l18.752-7.958 23.674 55.757-18.751 7.957z"/><path id="Fill-14" transform="rotate(22 75.456 212.783)" d="M63.891 203.88l2.66-2.66 20.47 20.465-2.66 2.66z"/><path id="Stroke-15" stroke="#A3B1BF" stroke-width="1.62" stroke-linejoin="round" d="M68.068 200.196l3.463-1.47 11.313 26.643-3.463 1.47z"/><path id="Fill-16" fill="#F5F5F5" transform="rotate(22 78.176 202.618)" d="M74.403 205.007l6.162-6.162 1.385 1.385-6.163 6.16z"/><path id="Stroke-17" stroke="#A3B1BF" stroke-width="1.62" stroke-linejoin="round" d="M73.783 203.42l8.022-3.405.765 1.802-8.022 3.404z"/><path id="Fill-18" fill="#F5F5F5" transform="rotate(22 84.677 217.929)" d="M80.904 220.318l6.162-6.162 1.384 1.384-6.162 6.162z"/><path id="Stroke-19" stroke="#A3B1BF" stroke-width="1.62" stroke-linejoin="round" d="M80.283 218.73l8.022-3.404.765 1.802-8.021 3.404z"/><path id="Fill-20" transform="rotate(22 70.238 242.405)" d="M67.85 238.632l6.162 6.161-1.384 1.384-6.163-6.161z"/><path id="Stroke-21" stroke="#A3B1BF" stroke-width="1.62" stroke-linejoin="round" d="M69.437 238.012l3.405 8.02-1.802.766-3.405-8.022z"/><path id="Fill-22" transform="rotate(22 48.082 224.399)" d="M35.113 220.725l1.211-9.293 24.727 24.722-9.295 1.211z"/><path id="Stroke-23" stroke="#A3B1BF" stroke-width="1.62" stroke-linejoin="round" d="M37.433 216.134l4.605-8.162 13.665 32.184-9.072-2.359z"/><path id="Fill-24" transform="rotate(22 38.613 228.417)" d="M32.918 217.47l-6.668-1.414 24.726 24.722-1.415-6.667z"/><path id="Stroke-25" stroke="#A3B1BF" stroke-width="1.62" stroke-linejoin="round" d="M37.433 216.134l-5.653-3.81 13.666 32.185 1.185-6.712z"/><path id="Fill-26" transform="rotate(22 31.086 221.524)" d="M32.647 217.298l-5.788 1.081 7.372 7.371 1.082-5.786z"/><path id="Stroke-27" stroke="#A3B1BF" stroke-width="1.62" stroke-linejoin="round" d="M34.117 218.19l-5.772-1.165 4.074 9.596 3.171-4.96z"/><path id="Fill-28" transform="rotate(22 38.344 238.618)" d="M39.905 234.392l-5.788 1.081 7.373 7.371 1.081-5.787z"/><path id="Stroke-29" stroke="#A3B1BF" stroke-width="1.62" stroke-linejoin="round" d="M41.375 235.284l-5.772-1.165 4.074 9.595 3.171-4.96z"/><path id="Fill-30" fill="#F0F2F5" transform="rotate(22 75.353 203.767)" d="M71.442 201.708l1.852-1.851 5.97 5.968-1.852 1.852z"/><path id="Stroke-31" stroke="#A3B1BF" stroke-width="1.62" stroke-linejoin="round" d="M72.498 200.393l2.41-1.023 3.3 7.77-2.41 1.024z"/><path id="Fill-32" fill="#F0F2F5" transform="rotate(22 81.872 219.12)" d="M77.96 217.061l1.852-1.851 5.97 5.968-1.851 1.852z"/><path id="Stroke-33" stroke="#A3B1BF" stroke-width="1.62" stroke-linejoin="round" d="M79.016 215.746l2.411-1.023 3.3 7.77-2.411 1.024z"/><path id="Fill-34" transform="rotate(22 68.035 237.215)" d="M65.16 237.106l2.766-2.765 2.984 2.984-2.766 2.765z"/><path id="Stroke-35" stroke="#A3B1BF" stroke-width="1.62" fill="#F5F5F5" stroke-linejoin="round" d="M65.41 236.037l3.6-1.528 1.65 3.885-3.6 1.528z"/><path d="M90.256 213.065c-11.029-11.026-15.613-24.911-11.767-33.552.636-1.429 2.343-4.083 6.045-.382l39.398 39.39c3.371 3.37 1.313 5.672-.114 6.307-8.643 3.847-22.533-.736-33.562-11.763z" id="Fill-36" fill="#F5F5F5" transform="rotate(22 101.454 201.709)"/><path d="M86.817 208.043c-6.095-14.354-5.144-28.946 1.659-35.517 1.125-1.086 3.702-2.908 5.748 1.91l21.773 51.281c1.864 4.389-.907 5.75-2.468 5.805-9.455.33-20.617-9.123-26.712-23.479z" id="Stroke-38" stroke="#A3B1BF" stroke-width="1.62" fill="#F0F2F5" stroke-linejoin="round"/><path id="Fill-40" fill="#F0F2F5" transform="rotate(22 86.634 208.039)" d="M77.972 201.23l1.852-1.852 15.472 15.47-1.852 1.851z"/><path id="Stroke-42" stroke="#A3B1BF" stroke-width="1.62" stroke-linejoin="round" d="M81.153 198.48l2.41-1.022 8.552 20.139-2.411 1.023z"/><path d="M121.636 196.069a2.863 2.863 0 1 1-4.05-4.05 2.863 2.863 0 0 1 4.05 4.05" id="Fill-44" fill="#A3B1BF" transform="rotate(22 119.611 194.045)"/><path id="Fill-46" fill-opacity=".6" fill="#A3B1BF" transform="rotate(22 81.25 248.056)" d="M81.25 249.672l-1.616-1.616 1.617-1.615 1.616 1.615z"/><path id="Stroke-48" transform="rotate(22 81.25 248.056)" d="M81.25 249.672l-1.616-1.616 1.617-1.615 1.616 1.615z"/><path id="Fill-50" fill-opacity=".6" fill="#A3B1BF" transform="rotate(22 82.702 251.475)" d="M82.702 253.091l-1.616-1.616 1.616-1.616 1.616 1.616z"/><path id="Stroke-52" transform="rotate(22 82.702 251.475)" d="M82.702 253.091l-1.616-1.616 1.616-1.616 1.616 1.616z"/><path id="Fill-54" fill-opacity=".6" fill="#A3B1BF" transform="rotate(22 84.154 254.894)" d="M84.154 256.51l-1.616-1.616 1.616-1.616 1.616 1.616z"/><path id="Stroke-56" transform="rotate(22 84.154 254.894)" d="M84.154 256.51l-1.616-1.616 1.616-1.616 1.616 1.616z"/><path id="Fill-58" fill-opacity=".6" fill="#A3B1BF" transform="rotate(22 85.605 258.313)" d="M85.605 259.929l-1.616-1.616 1.616-1.616 1.617 1.616z"/><path id="Stroke-60" transform="rotate(22 85.605 258.313)" d="M85.605 259.929l-1.616-1.616 1.616-1.616 1.617 1.616z"/><path id="Fill-62" fill-opacity=".6" fill="#A3B1BF" transform="rotate(22 78.094 249.396)" d="M78.094 251.012l-1.616-1.616 1.616-1.616 1.617 1.616z"/><path id="Stroke-64" transform="rotate(22 78.094 249.396)" d="M78.094 251.012l-1.616-1.616 1.616-1.616 1.617 1.616z"/><path id="Fill-66" fill-opacity=".6" fill="#A3B1BF" transform="rotate(22 79.546 252.815)" d="M79.546 254.43l-1.616-1.615 1.616-1.616 1.616 1.616z"/><path id="Stroke-68" transform="rotate(22 79.546 252.815)" d="M79.546 254.43l-1.616-1.615 1.616-1.616 1.616 1.616z"/><path id="Fill-70" fill-opacity=".6" fill="#A3B1BF" transform="rotate(22 80.998 256.233)" d="M80.998 257.85l-1.617-1.617 1.617-1.616 1.616 1.616z"/><path id="Stroke-72" transform="rotate(22 80.998 256.233)" d="M79.381 256.233l1.617-1.616 1.616 1.616-1.616 1.616z"/><path id="Fill-74" fill-opacity=".6" fill="#A3B1BF" transform="rotate(22 82.45 259.652)" d="M82.45 261.268l-1.617-1.616 1.616-1.616 1.617 1.616z"/><path id="Stroke-76" transform="rotate(22 82.45 259.652)" d="M82.45 261.268l-1.617-1.616 1.616-1.616 1.617 1.616z"/><path id="Fill-78" fill-opacity=".6" fill="#A3B1BF" transform="rotate(22 74.938 250.735)" d="M74.938 252.351l-1.616-1.616 1.616-1.616 1.617 1.616z"/><path id="Stroke-80" transform="rotate(22 74.938 250.735)" d="M74.938 252.351l-1.616-1.616 1.616-1.616 1.617 1.616z"/><path id="Fill-82" fill-opacity=".6" fill="#A3B1BF" transform="rotate(22 76.39 254.154)" d="M76.39 255.77l-1.616-1.616 1.616-1.616 1.616 1.616z"/><path id="Stroke-84" transform="rotate(22 76.39 254.154)" d="M76.39 255.77l-1.616-1.616 1.616-1.616 1.616 1.616z"/><path id="Fill-86" fill-opacity=".6" fill="#A3B1BF" transform="rotate(22 77.842 257.573)" d="M77.842 259.189l-1.617-1.616 1.617-1.616 1.616 1.616z"/><path id="Stroke-88" transform="rotate(22 77.842 257.573)" d="M77.842 259.189l-1.617-1.616 1.617-1.616 1.616 1.616z"/><path id="Fill-90" fill-opacity=".6" fill="#A3B1BF" transform="rotate(22 79.293 260.991)" d="M79.293 262.607l-1.616-1.616 1.616-1.615 1.616 1.615z"/><path id="Stroke-92" transform="rotate(22 79.293 260.991)" d="M79.293 262.607l-1.616-1.616 1.616-1.615 1.616 1.615z"/><path id="Fill-94" fill-opacity=".6" fill="#A3B1BF" transform="rotate(22 71.782 252.074)" d="M71.782 253.69l-1.616-1.616 1.616-1.616 1.617 1.616z"/><path id="Stroke-96" transform="rotate(22 71.782 252.074)" d="M71.782 253.69l-1.616-1.616 1.616-1.616 1.617 1.616z"/><path id="Fill-98" fill-opacity=".6" fill="#A3B1BF" transform="rotate(22 73.234 255.493)" d="M73.234 257.11l-1.616-1.617 1.616-1.616 1.616 1.616z"/><path id="Stroke-100" transform="rotate(22 73.234 255.493)" d="M73.234 257.11l-1.616-1.617 1.616-1.616 1.616 1.616z"/><path id="Fill-102" fill-opacity=".6" fill="#A3B1BF" transform="rotate(22 74.686 258.912)" d="M74.686 260.528l-1.617-1.616 1.617-1.616 1.616 1.616z"/><path id="Stroke-104" transform="rotate(22 74.686 258.912)" d="M74.686 260.528l-1.617-1.616 1.617-1.616 1.616 1.616z"/><path id="Fill-106" fill-opacity=".6" fill="#A3B1BF" transform="rotate(22 76.137 262.33)" d="M76.137 263.947l-1.616-1.616 1.616-1.616 1.616 1.616z"/><path id="Stroke-108" transform="rotate(22 76.137 262.33)" d="M76.137 263.947l-1.616-1.616 1.616-1.616 1.616 1.616z"/><path id="Fill-110" fill-opacity=".6" fill="#A3B1BF" transform="rotate(22 68.626 253.414)" d="M68.626 255.03l-1.616-1.616 1.616-1.616 1.616 1.616z"/><path id="Stroke-112" transform="rotate(22 68.626 253.414)" d="M68.626 255.03l-1.616-1.616 1.616-1.616 1.616 1.616z"/><path id="Fill-114" fill-opacity=".6" fill="#A3B1BF" transform="rotate(22 70.078 256.832)" d="M70.078 258.448l-1.616-1.616 1.616-1.615 1.616 1.615z"/><path id="Stroke-116" transform="rotate(22 70.078 256.832)" d="M70.078 258.448l-1.616-1.616 1.616-1.615 1.616 1.615z"/><path id="Fill-118" fill-opacity=".6" fill="#A3B1BF" transform="rotate(22 71.53 260.251)" d="M71.53 261.867l-1.617-1.616 1.616-1.616 1.617 1.616z"/><path id="Stroke-120" transform="rotate(22 71.53 260.251)" d="M71.53 261.867l-1.617-1.616 1.616-1.616 1.617 1.616z"/><path id="Fill-122" fill-opacity=".6" fill="#A3B1BF" transform="rotate(22 72.981 263.67)" d="M72.981 265.286l-1.616-1.616 1.616-1.616 1.616 1.616z"/><path id="Stroke-124" transform="rotate(22 72.981 263.67)" d="M72.981 265.286l-1.616-1.616 1.616-1.616 1.616 1.616z"/><path id="Fill-126" fill-opacity=".6" fill="#A3B1BF" transform="rotate(22 88.853 265.961)" d="M88.853 267.577l-1.616-1.616 1.616-1.616 1.616 1.616z"/><path id="Stroke-128" transform="rotate(22 88.853 265.961)" d="M88.853 267.577l-1.616-1.616 1.616-1.616 1.616 1.616z"/><path id="Fill-130" fill-opacity=".6" fill="#A3B1BF" transform="rotate(22 90.305 269.38)" d="M90.305 270.996l-1.617-1.616 1.617-1.616 1.616 1.616z"/><path id="Stroke-132" transform="rotate(22 90.305 269.38)" d="M90.305 270.996l-1.617-1.616 1.617-1.616 1.616 1.616z"/><path id="Fill-134" fill-opacity=".6" fill="#A3B1BF" transform="rotate(22 91.756 272.799)" d="M91.756 274.415l-1.616-1.616 1.616-1.616 1.616 1.616z"/><path id="Stroke-136" transform="rotate(22 91.756 272.799)" d="M91.756 274.415l-1.616-1.616 1.616-1.616 1.616 1.616z"/><path id="Fill-138" fill-opacity=".6" fill="#A3B1BF" transform="rotate(22 93.208 276.218)" d="M93.208 277.834l-1.617-1.616 1.617-1.616 1.616 1.616z"/><path id="Stroke-140" transform="rotate(22 93.208 276.218)" d="M93.208 277.834l-1.617-1.616 1.617-1.616 1.616 1.616z"/><path id="Fill-142" fill-opacity=".6" fill="#A3B1BF" transform="rotate(22 85.697 267.3)" d="M85.697 268.917L84.08 267.3l1.616-1.616 1.616 1.616z"/><path id="Stroke-144" transform="rotate(22 85.697 267.3)" d="M85.697 268.917L84.08 267.3l1.616-1.616 1.616 1.616z"/><path id="Fill-146" fill-opacity=".6" fill="#A3B1BF" transform="rotate(22 87.148 270.72)" d="M87.148 272.335l-1.616-1.616 1.616-1.615 1.617 1.615z"/><path id="Stroke-148" transform="rotate(22 87.148 270.72)" d="M87.148 272.335l-1.616-1.616 1.616-1.615 1.617 1.615z"/><path id="Fill-150" fill-opacity=".6" fill="#A3B1BF" transform="rotate(22 88.6 274.138)" d="M88.6 275.754l-1.616-1.616 1.616-1.616 1.616 1.616z"/><path id="Stroke-152" transform="rotate(22 88.6 274.138)" d="M88.6 275.754l-1.616-1.616 1.616-1.616 1.616 1.616z"/><path id="Fill-154" fill-opacity=".6" fill="#A3B1BF" transform="rotate(22 90.052 277.557)" d="M90.052 279.173l-1.617-1.616 1.617-1.616 1.616 1.616z"/><path id="Stroke-156" transform="rotate(22 90.052 277.557)" d="M90.052 279.173l-1.617-1.616 1.617-1.616 1.616 1.616z"/><path id="Fill-158" fill-opacity=".6" fill="#A3B1BF" transform="rotate(22 82.54 268.64)" d="M82.54 270.256l-1.616-1.616 1.617-1.616 1.616 1.616z"/><path id="Stroke-160" transform="rotate(22 82.54 268.64)" d="M82.54 270.256l-1.616-1.616 1.617-1.616 1.616 1.616z"/><path id="Fill-162" fill-opacity=".6" fill="#A3B1BF" transform="rotate(22 83.992 272.059)" d="M83.992 273.675l-1.616-1.616 1.616-1.616 1.617 1.616z"/><path id="Stroke-164" transform="rotate(22 83.992 272.059)" d="M83.992 273.675l-1.616-1.616 1.616-1.616 1.617 1.616z"/><path id="Fill-166" fill-opacity=".6" fill="#A3B1BF" transform="rotate(22 85.444 275.478)" d="M85.444 277.093l-1.616-1.615 1.616-1.616 1.616 1.616z"/><path id="Stroke-168" transform="rotate(22 85.444 275.478)" d="M85.444 277.093l-1.616-1.615 1.616-1.616 1.616 1.616z"/><path id="Fill-170" fill-opacity=".6" fill="#A3B1BF" transform="rotate(22 86.896 278.896)" d="M86.896 280.512l-1.617-1.616 1.617-1.616 1.616 1.616z"/><path id="Stroke-172" transform="rotate(22 86.896 278.896)" d="M86.896 280.512l-1.617-1.616 1.617-1.616 1.616 1.616z"/><path id="Fill-174" fill-opacity=".6" fill="#A3B1BF" transform="rotate(22 79.385 269.98)" d="M79.385 271.595l-1.617-1.616 1.617-1.616L81 269.98z"/><path id="Stroke-176" transform="rotate(22 79.385 269.98)" d="M79.385 271.595l-1.617-1.616 1.617-1.616L81 269.98z"/><path id="Fill-178" fill-opacity=".6" fill="#A3B1BF" transform="rotate(22 80.836 273.398)" d="M80.836 275.014l-1.616-1.616 1.616-1.616 1.616 1.616z"/><path id="Stroke-180" transform="rotate(22 80.836 273.398)" d="M80.836 275.014l-1.616-1.616 1.616-1.616 1.616 1.616z"/><path id="Fill-182" fill-opacity=".6" fill="#A3B1BF" transform="rotate(22 82.288 276.817)" d="M82.288 278.433l-1.616-1.616 1.616-1.616 1.616 1.616z"/><path id="Stroke-184" transform="rotate(22 82.288 276.817)" d="M82.288 278.433l-1.616-1.616 1.616-1.616 1.616 1.616z"/><path id="Fill-186" fill-opacity=".6" fill="#A3B1BF" transform="rotate(22 83.74 280.236)" d="M83.74 281.852l-1.617-1.616 1.616-1.616 1.617 1.616z"/><path id="Stroke-188" transform="rotate(22 83.74 280.236)" d="M83.74 281.852l-1.617-1.616 1.616-1.616 1.617 1.616z"/><path id="Fill-190" fill-opacity=".6" fill="#A3B1BF" transform="rotate(22 76.228 271.319)" d="M76.228 272.935l-1.616-1.616 1.616-1.616 1.617 1.616z"/><path id="Stroke-192" transform="rotate(22 76.228 271.319)" d="M76.228 272.935l-1.616-1.616 1.616-1.616 1.617 1.616z"/><path id="Fill-194" fill-opacity=".6" fill="#A3B1BF" transform="rotate(22 77.68 274.737)" d="M77.68 276.353l-1.616-1.616 1.616-1.616 1.616 1.616z"/><path id="Stroke-196" transform="rotate(22 77.68 274.737)" d="M77.68 276.353l-1.616-1.616 1.616-1.616 1.616 1.616z"/><path id="Fill-198" fill-opacity=".6" fill="#A3B1BF" transform="rotate(22 79.132 278.156)" d="M79.132 279.772l-1.617-1.616 1.617-1.616 1.616 1.616z"/><path id="Stroke-200" transform="rotate(22 79.132 278.156)" d="M79.132 279.772l-1.617-1.616 1.617-1.616 1.616 1.616z"/><path id="Fill-202" fill-opacity=".6" fill="#A3B1BF" transform="rotate(22 80.583 281.575)" d="M80.583 283.191l-1.616-1.616 1.616-1.616 1.617 1.616z"/><path id="Stroke-204" transform="rotate(22 80.583 281.575)" d="M80.583 283.191l-1.616-1.616 1.616-1.616 1.617 1.616z"/><path id="Fill-206" fill-opacity=".6" fill="#A3B1BF" transform="rotate(22 96.455 283.866)" d="M96.455 285.482l-1.616-1.616 1.616-1.616 1.616 1.616z"/><path id="Stroke-208" transform="rotate(22 96.455 283.866)" d="M96.455 285.482l-1.616-1.616 1.616-1.616 1.616 1.616z"/><path id="Fill-210" fill-opacity=".6" fill="#A3B1BF" transform="rotate(22 97.907 287.285)" d="M97.907 288.901l-1.616-1.616 1.616-1.616 1.616 1.616z"/><path id="Stroke-212" transform="rotate(22 97.907 287.285)" d="M97.907 288.901l-1.616-1.616 1.616-1.616 1.616 1.616z"/><path id="Fill-214" fill-opacity=".6" fill="#A3B1BF" transform="rotate(22 99.358 290.704)" d="M99.358 292.32l-1.616-1.616 1.616-1.616 1.617 1.616z"/><path id="Stroke-216" transform="rotate(22 99.358 290.704)" d="M99.358 292.32l-1.616-1.616 1.616-1.616 1.617 1.616z"/><path id="Fill-218" fill-opacity=".6" fill="#A3B1BF" transform="rotate(22 100.81 294.123)" d="M100.81 295.739l-1.616-1.616 1.616-1.616 1.616 1.616z"/><path id="Stroke-220" transform="rotate(22 100.81 294.123)" d="M100.81 295.739l-1.616-1.616 1.616-1.616 1.616 1.616z"/><path id="Fill-222" fill-opacity=".6" fill="#A3B1BF" transform="rotate(22 93.3 285.206)" d="M93.3 286.821l-1.617-1.615 1.616-1.616 1.616 1.616z"/><path id="Stroke-224" transform="rotate(22 93.3 285.206)" d="M93.3 286.821l-1.617-1.615 1.616-1.616 1.616 1.616z"/><path id="Fill-226" fill-opacity=".6" fill="#A3B1BF" transform="rotate(22 94.75 288.624)" d="M94.75 290.24l-1.615-1.616 1.616-1.616 1.616 1.616z"/><path id="Stroke-228" transform="rotate(22 94.75 288.624)" d="M94.75 290.24l-1.615-1.616 1.616-1.616 1.616 1.616z"/><path id="Fill-230" fill-opacity=".6" fill="#A3B1BF" transform="rotate(22 96.202 292.043)" d="M96.202 293.66l-1.616-1.617 1.616-1.616 1.617 1.616z"/><path id="Stroke-232" transform="rotate(22 96.202 292.043)" d="M96.202 293.66l-1.616-1.617 1.616-1.616 1.617 1.616z"/><path id="Fill-234" fill-opacity=".6" fill="#A3B1BF" transform="rotate(22 97.654 295.462)" d="M97.654 297.078l-1.616-1.616 1.616-1.616 1.616 1.616z"/><path id="Stroke-236" transform="rotate(22 97.654 295.462)" d="M97.654 297.078l-1.616-1.616 1.616-1.616 1.616 1.616z"/><path id="Fill-238" fill-opacity=".6" fill="#A3B1BF" transform="rotate(22 90.143 286.545)" d="M90.143 288.16l-1.616-1.615 1.616-1.616 1.616 1.616z"/><path id="Stroke-240" transform="rotate(22 90.143 286.545)" d="M90.143 288.16l-1.616-1.615 1.616-1.616 1.616 1.616z"/><path id="Fill-242" fill-opacity=".6" fill="#A3B1BF" transform="rotate(22 91.595 289.964)" d="M91.595 291.58l-1.617-1.616 1.617-1.616 1.616 1.616z"/><path id="Stroke-244" transform="rotate(22 91.595 289.964)" d="M91.595 291.58l-1.617-1.616 1.617-1.616 1.616 1.616z"/><path id="Fill-246" fill-opacity=".6" fill="#A3B1BF" transform="rotate(22 93.046 293.383)" d="M93.046 294.998l-1.616-1.615 1.616-1.616 1.616 1.616z"/><path id="Stroke-248" transform="rotate(22 93.046 293.383)" d="M93.046 294.998l-1.616-1.615 1.616-1.616 1.616 1.616z"/><path id="Fill-250" fill-opacity=".6" fill="#A3B1BF" transform="rotate(22 94.498 296.801)" d="M94.498 298.417l-1.616-1.616 1.616-1.616 1.616 1.616z"/><path id="Stroke-252" transform="rotate(22 94.498 296.801)" d="M94.498 298.417l-1.616-1.616 1.616-1.616 1.616 1.616z"/><path id="Fill-254" fill-opacity=".6" fill="#A3B1BF" transform="rotate(22 86.987 287.884)" d="M86.987 289.5l-1.616-1.616 1.616-1.616 1.616 1.616z"/><path id="Stroke-256" transform="rotate(22 86.987 287.884)" d="M86.987 289.5l-1.616-1.616 1.616-1.616 1.616 1.616z"/><path id="Fill-258" fill-opacity=".6" fill="#A3B1BF" transform="rotate(22 88.439 291.303)" d="M88.439 292.919l-1.617-1.616 1.617-1.616 1.616 1.616z"/><path id="Stroke-260" transform="rotate(22 88.439 291.303)" d="M88.439 292.919l-1.617-1.616 1.617-1.616 1.616 1.616z"/><path id="Fill-262" fill-opacity=".6" fill="#A3B1BF" transform="rotate(22 89.89 294.722)" d="M89.89 296.338l-1.616-1.616 1.616-1.616 1.616 1.616z"/><path id="Stroke-264" transform="rotate(22 89.89 294.722)" d="M89.89 296.338l-1.616-1.616 1.616-1.616 1.616 1.616z"/><path id="Fill-266" fill-opacity=".6" fill="#A3B1BF" transform="rotate(22 91.342 298.14)" d="M91.342 299.757l-1.616-1.616 1.616-1.616 1.616 1.616z"/><path id="Stroke-268" transform="rotate(22 91.342 298.14)" d="M91.342 299.757l-1.616-1.616 1.616-1.616 1.616 1.616z"/><path id="Fill-270" fill-opacity=".6" fill="#A3B1BF" transform="rotate(22 83.83 289.223)" d="M83.83 290.84l-1.615-1.617 1.616-1.615 1.616 1.615z"/><path id="Stroke-272" transform="rotate(22 83.83 289.223)" d="M82.215 289.223l1.616-1.615 1.616 1.615-1.616 1.616z"/><path id="Fill-274" fill-opacity=".6" fill="#A3B1BF" transform="rotate(22 85.282 292.642)" d="M85.282 294.258l-1.616-1.616 1.616-1.616 1.617 1.616z"/><path id="Stroke-276" transform="rotate(22 85.282 292.642)" d="M85.282 294.258l-1.616-1.616 1.616-1.616 1.617 1.616z"/><path id="Fill-278" fill-opacity=".6" fill="#A3B1BF" transform="rotate(22 86.734 296.061)" d="M86.734 297.677l-1.616-1.616 1.616-1.616 1.616 1.616z"/><path id="Stroke-280" transform="rotate(22 86.734 296.061)" d="M86.734 297.677l-1.616-1.616 1.616-1.616 1.616 1.616z"/><path id="Fill-282" fill-opacity=".6" fill="#A3B1BF" transform="rotate(22 88.186 299.48)" d="M88.186 301.096l-1.617-1.616 1.617-1.616 1.616 1.616z"/><path id="Stroke-284" transform="rotate(22 88.186 299.48)" d="M88.186 301.096l-1.617-1.616 1.617-1.616 1.616 1.616z"/><path id="Fill-286" transform="rotate(22 37.78 163.403)" d="M51.996 192.018l14.405-14.402-42.837-42.829L9.16 149.19z"/><path id="Fill-290" transform="rotate(22 50.4 195.682)" d="M54.174 198.07l-6.163-6.16-1.384 1.383 6.162 6.162z"/><path id="Stroke-292" stroke="#A3B1BF" stroke-width="1.62" stroke-linejoin="round" d="M53.004 199.31l-3.406-8.02-1.802.764 3.406 8.021z"/><path id="Fill-294" fill-opacity=".8" fill="#A3B1BF" transform="rotate(22 52.604 200.871)" d="M52.713 203.746l2.766-2.765-2.985-2.984-2.766 2.765z"/><path id="Stroke-296" stroke="#A3B1BF" stroke-width="1.62" fill="#FFF" stroke-linejoin="round" d="M51.628 203.578l3.6-1.528-1.649-3.885-3.6 1.528z"/><path id="Fill-298" fill-opacity=".8" fill="#A3B1BF" transform="rotate(22 53.983 183.837)" d="M52.367 183.837l1.616 1.616 1.617-1.616-1.617-1.616z"/><path id="Stroke-300" transform="rotate(22 53.983 183.837)" d="M52.367 183.837l1.616 1.616 1.617-1.616-1.617-1.616z"/><path id="Fill-302" fill-opacity=".8" fill="#A3B1BF" transform="rotate(22 52.532 180.418)" d="M50.915 180.418l1.617 1.616 1.616-1.616-1.616-1.616z"/><path id="Stroke-304" transform="rotate(22 52.532 180.418)" d="M50.915 180.418l1.617 1.616 1.616-1.616-1.616-1.616z"/><path id="Fill-306" fill-opacity=".8" fill="#A3B1BF" transform="rotate(22 51.08 177)" d="M49.464 177l1.616 1.615L52.696 177l-1.616-1.616z"/><path id="Stroke-308" transform="rotate(22 51.08 177)" d="M49.464 177l1.616 1.615L52.696 177l-1.616-1.616z"/><path id="Fill-310" fill-opacity=".8" fill="#A3B1BF" transform="rotate(22 49.628 173.58)" d="M48.012 173.58l1.616 1.616 1.617-1.616-1.617-1.616z"/><path id="Stroke-312" transform="rotate(22 49.628 173.58)" d="M48.012 173.58l1.616 1.616 1.617-1.616-1.617-1.616z"/><path id="Fill-314" fill-opacity=".8" fill="#A3B1BF" transform="rotate(22 50.827 185.176)" d="M49.21 185.176l1.617 1.616 1.616-1.616-1.616-1.616z"/><path id="Stroke-316" transform="rotate(22 50.827 185.176)" d="M49.21 185.176l1.617 1.616 1.616-1.616-1.616-1.616z"/><path id="Fill-318" fill-opacity=".8" fill="#A3B1BF" transform="rotate(22 49.376 181.757)" d="M47.76 181.757l1.616 1.616 1.616-1.616-1.616-1.616z"/><path id="Stroke-320" transform="rotate(22 49.376 181.757)" d="M47.76 181.757l1.616 1.616 1.616-1.616-1.616-1.616z"/><path id="Fill-322" fill-opacity=".8" fill="#A3B1BF" transform="rotate(22 47.924 178.338)" d="M46.308 178.338l1.616 1.616 1.616-1.616-1.616-1.615z"/><path id="Stroke-324" transform="rotate(22 47.924 178.338)" d="M46.308 178.338l1.616 1.616 1.616-1.616-1.616-1.615z"/><path id="Fill-326" fill-opacity=".8" fill="#A3B1BF" transform="rotate(22 46.472 174.92)" d="M44.856 174.92l1.616 1.616 1.617-1.616-1.617-1.616z"/><path id="Stroke-328" transform="rotate(22 46.472 174.92)" d="M44.856 174.92l1.616 1.616 1.617-1.616-1.617-1.616z"/><path id="Fill-330" fill-opacity=".8" fill="#A3B1BF" transform="rotate(22 47.671 186.515)" d="M46.055 186.515l1.616 1.616 1.616-1.616-1.616-1.616z"/><path id="Stroke-332" transform="rotate(22 47.671 186.515)" d="M46.055 186.515l1.616 1.616 1.616-1.616-1.616-1.616z"/><path id="Fill-334" fill-opacity=".8" fill="#A3B1BF" transform="rotate(22 46.22 183.097)" d="M44.603 183.097l1.616 1.616 1.617-1.616-1.617-1.616z"/><path id="Stroke-336" transform="rotate(22 46.22 183.097)" d="M44.603 183.097l1.616 1.616 1.617-1.616-1.617-1.616z"/><path id="Fill-338" fill-opacity=".8" fill="#A3B1BF" transform="rotate(22 44.768 179.678)" d="M43.152 179.678l1.616 1.616 1.616-1.616-1.616-1.616z"/><path id="Stroke-340" transform="rotate(22 44.768 179.678)" d="M43.152 179.678l1.616 1.616 1.616-1.616-1.616-1.616z"/><path id="Fill-342" fill-opacity=".8" fill="#A3B1BF" transform="rotate(22 43.316 176.259)" d="M41.7 176.259l1.616 1.616 1.617-1.616-1.617-1.616z"/><path id="Stroke-344" transform="rotate(22 43.316 176.259)" d="M41.7 176.259l1.616 1.616 1.617-1.616-1.617-1.616z"/><path id="Fill-346" fill-opacity=".8" fill="#A3B1BF" transform="rotate(22 44.515 187.855)" d="M42.899 187.855l1.616 1.616 1.616-1.616-1.616-1.616z"/><path id="Stroke-348" transform="rotate(22 44.515 187.855)" d="M42.899 187.855l1.616 1.616 1.616-1.616-1.616-1.616z"/><path id="Fill-350" fill-opacity=".8" fill="#A3B1BF" transform="rotate(22 43.063 184.436)" d="M41.447 184.436l1.616 1.616 1.617-1.616-1.617-1.616z"/><path id="Stroke-352" transform="rotate(22 43.063 184.436)" d="M41.447 184.436l1.616 1.616 1.617-1.616-1.617-1.616z"/><path id="Fill-354" fill-opacity=".8" fill="#A3B1BF" transform="rotate(22 41.612 181.017)" d="M39.996 181.017l1.616 1.616 1.616-1.616-1.616-1.616z"/><path id="Stroke-356" transform="rotate(22 41.612 181.017)" d="M39.996 181.017l1.616 1.616 1.616-1.616-1.616-1.616z"/><path id="Fill-358" fill-opacity=".8" fill="#A3B1BF" transform="rotate(22 40.16 177.598)" d="M38.544 177.598l1.616 1.616 1.616-1.616-1.616-1.616z"/><path id="Stroke-360" transform="rotate(22 40.16 177.598)" d="M38.544 177.598l1.616 1.616 1.616-1.616-1.616-1.616z"/><path id="Fill-362" fill-opacity=".8" fill="#A3B1BF" transform="rotate(22 41.359 189.194)" d="M39.743 189.194l1.616 1.616 1.616-1.616-1.616-1.616z"/><path id="Stroke-364" transform="rotate(22 41.359 189.194)" d="M39.743 189.194l1.616 1.616 1.616-1.616-1.616-1.616z"/><path id="Fill-366" fill-opacity=".8" fill="#A3B1BF" transform="rotate(22 39.907 185.775)" d="M38.291 185.775l1.616 1.616 1.617-1.616-1.617-1.616z"/><path id="Stroke-368" transform="rotate(22 39.907 185.775)" d="M38.291 185.775l1.616 1.616 1.617-1.616-1.617-1.616z"/><path id="Fill-370" fill-opacity=".8" fill="#A3B1BF" transform="rotate(22 38.456 182.356)" d="M36.84 182.356l1.616 1.616 1.616-1.616-1.616-1.616z"/><path id="Stroke-372" transform="rotate(22 38.456 182.356)" d="M36.84 182.356l1.616 1.616 1.616-1.616-1.616-1.616z"/><path id="Fill-374" fill-opacity=".8" fill="#A3B1BF" transform="rotate(22 37.004 178.938)" d="M35.388 178.938l1.616 1.616 1.616-1.616-1.616-1.616z"/><path id="Stroke-376" transform="rotate(22 37.004 178.938)" d="M35.388 178.938l1.616 1.616 1.616-1.616-1.616-1.616z"/><path id="Fill-378" fill-opacity=".8" fill="#A3B1BF" transform="rotate(22 46.38 165.932)" d="M44.765 165.932l1.616 1.616 1.616-1.616-1.616-1.616z"/><path id="Stroke-380" transform="rotate(22 46.38 165.932)" d="M44.765 165.932l1.616 1.616 1.616-1.616-1.616-1.616z"/><path id="Fill-382" fill-opacity=".8" fill="#A3B1BF" transform="rotate(22 44.93 162.513)" d="M43.313 162.513l1.616 1.616 1.617-1.616-1.617-1.616z"/><path id="Stroke-384" transform="rotate(22 44.93 162.513)" d="M43.313 162.513l1.616 1.616 1.617-1.616-1.617-1.616z"/><path id="Fill-386" fill-opacity=".8" fill="#A3B1BF" transform="rotate(22 43.478 159.094)" d="M41.861 159.094l1.617 1.616 1.616-1.616-1.616-1.616z"/><path id="Stroke-388" transform="rotate(22 43.478 159.094)" d="M41.861 159.094l1.617 1.616 1.616-1.616-1.616-1.616z"/><path id="Fill-390" fill-opacity=".8" fill="#A3B1BF" transform="rotate(22 42.026 155.675)" d="M40.41 155.675l1.616 1.616 1.616-1.616-1.616-1.615z"/><path id="Stroke-392" transform="rotate(22 42.026 155.675)" d="M40.41 155.675l1.616 1.616 1.616-1.616-1.616-1.615z"/><path id="Fill-394" fill-opacity=".8" fill="#A3B1BF" transform="rotate(22 43.225 167.271)" d="M41.609 167.271l1.616 1.616 1.616-1.616-1.616-1.616z"/><path id="Stroke-396" transform="rotate(22 43.225 167.271)" d="M41.609 167.271l1.616 1.616 1.616-1.616-1.616-1.616z"/><path id="Fill-398" fill-opacity=".8" fill="#A3B1BF" transform="rotate(22 41.773 163.852)" d="M40.157 163.852l1.616 1.616 1.616-1.616-1.616-1.616z"/><path id="Stroke-400" transform="rotate(22 41.773 163.852)" d="M40.157 163.852l1.616 1.616 1.616-1.616-1.616-1.616z"/><path id="Fill-402" fill-opacity=".8" fill="#A3B1BF" transform="rotate(22 40.322 160.434)" d="M38.705 160.434l1.617 1.615 1.616-1.615-1.616-1.616z"/><path id="Stroke-404" transform="rotate(22 40.322 160.434)" d="M38.705 160.434l1.617 1.615 1.616-1.615-1.616-1.616z"/><path id="Fill-406" fill-opacity=".8" fill="#A3B1BF" transform="rotate(22 38.87 157.015)" d="M37.254 157.015l1.616 1.616 1.616-1.616-1.616-1.616z"/><path id="Stroke-408" transform="rotate(22 38.87 157.015)" d="M37.254 157.015l1.616 1.616 1.616-1.616-1.616-1.616z"/><path id="Fill-410" fill-opacity=".8" fill="#A3B1BF" transform="rotate(22 40.069 168.61)" d="M38.452 168.61l1.617 1.616 1.616-1.616-1.616-1.615z"/><path id="Stroke-412" transform="rotate(22 40.069 168.61)" d="M38.452 168.61l1.617 1.616 1.616-1.616-1.616-1.615z"/><path id="Fill-414" fill-opacity=".8" fill="#A3B1BF" transform="rotate(22 38.617 165.192)" d="M37 165.192l1.617 1.616 1.616-1.616-1.616-1.616z"/><path id="Stroke-416" transform="rotate(22 38.617 165.192)" d="M37 165.192l1.617 1.616 1.616-1.616-1.616-1.616z"/><path id="Fill-418" fill-opacity=".8" fill="#A3B1BF" transform="rotate(22 37.166 161.773)" d="M35.55 161.773l1.615 1.616 1.617-1.616-1.617-1.616z"/><path id="Stroke-420" transform="rotate(22 37.166 161.773)" d="M35.55 161.773l1.615 1.616 1.617-1.616-1.617-1.616z"/><path id="Fill-422" fill-opacity=".8" fill="#A3B1BF" transform="rotate(22 35.714 158.354)" d="M34.098 158.354l1.616 1.616 1.616-1.616-1.616-1.616z"/><path id="Stroke-424" transform="rotate(22 35.714 158.354)" d="M34.098 158.354l1.616 1.616 1.616-1.616-1.616-1.616z"/><path id="Fill-426" fill-opacity=".8" fill="#A3B1BF" transform="rotate(22 36.913 169.95)" d="M35.296 169.95l1.617 1.616 1.616-1.616-1.616-1.616z"/><path id="Stroke-428" transform="rotate(22 36.913 169.95)" d="M35.296 169.95l1.617 1.616 1.616-1.616-1.616-1.616z"/><path id="Fill-430" fill-opacity=".8" fill="#A3B1BF" transform="rotate(22 35.461 166.531)" d="M33.845 166.531l1.616 1.616 1.616-1.616-1.616-1.616z"/><path id="Stroke-432" transform="rotate(22 35.461 166.531)" d="M33.845 166.531l1.616 1.616 1.616-1.616-1.616-1.616z"/><path id="Fill-434" fill-opacity=".8" fill="#A3B1BF" transform="rotate(22 34.01 163.112)" d="M32.393 163.112l1.616 1.616 1.617-1.616-1.617-1.616z"/><path id="Stroke-436" transform="rotate(22 34.01 163.112)" d="M32.393 163.112l1.616 1.616 1.617-1.616-1.617-1.616z"/><path id="Fill-438" fill-opacity=".8" fill="#A3B1BF" transform="rotate(22 32.558 159.693)" d="M30.942 159.693l1.616 1.616 1.616-1.616-1.616-1.616z"/><path id="Stroke-440" transform="rotate(22 32.558 159.693)" d="M30.942 159.693l1.616 1.616 1.616-1.616-1.616-1.616z"/><path id="Fill-442" fill-opacity=".8" fill="#A3B1BF" transform="rotate(22 33.757 171.29)" d="M32.14 171.29l1.617 1.615 1.616-1.616-1.616-1.616z"/><path id="Stroke-444" transform="rotate(22 33.757 171.29)" d="M32.14 171.29l1.617 1.615 1.616-1.616-1.616-1.616z"/><path id="Fill-446" fill-opacity=".8" fill="#A3B1BF" transform="rotate(22 32.305 167.87)" d="M30.689 167.87l1.616 1.616 1.616-1.616-1.616-1.616z"/><path id="Stroke-448" transform="rotate(22 32.305 167.87)" d="M30.689 167.87l1.616 1.616 1.616-1.616-1.616-1.616z"/><path id="Fill-450" fill-opacity=".8" fill="#A3B1BF" transform="rotate(22 30.853 164.451)" d="M29.237 164.451l1.616 1.616 1.617-1.616-1.617-1.615z"/><path id="Stroke-452" transform="rotate(22 30.853 164.451)" d="M29.237 164.451l1.616 1.616 1.617-1.616-1.617-1.615z"/><path id="Fill-454" fill-opacity=".8" fill="#A3B1BF" transform="rotate(22 29.402 161.033)" d="M27.785 161.033l1.617 1.616 1.616-1.616-1.616-1.616z"/><path id="Stroke-456" transform="rotate(22 29.402 161.033)" d="M27.785 161.033l1.617 1.616 1.616-1.616-1.616-1.616z"/><path id="Fill-458" fill-opacity=".8" fill="#A3B1BF" transform="rotate(22 38.779 148.027)" d="M37.162 148.027l1.617 1.616 1.616-1.616-1.616-1.616z"/><path id="Stroke-460" transform="rotate(22 38.779 148.027)" d="M37.162 148.027l1.617 1.616 1.616-1.616-1.616-1.616z"/><path id="Fill-462" fill-opacity=".8" fill="#A3B1BF" transform="rotate(22 37.327 144.608)" d="M35.71 144.608l1.617 1.616 1.616-1.616-1.616-1.616z"/><path id="Stroke-464" transform="rotate(22 37.327 144.608)" d="M35.71 144.608l1.617 1.616 1.616-1.616-1.616-1.616z"/><path id="Fill-466" fill-opacity=".8" fill="#A3B1BF" transform="rotate(22 35.875 141.19)" d="M34.26 141.19l1.615 1.615 1.617-1.616-1.617-1.616z"/><path id="Stroke-468" transform="rotate(22 35.875 141.19)" d="M34.26 141.19l1.615 1.615 1.617-1.616-1.617-1.616z"/><path id="Fill-470" fill-opacity=".8" fill="#A3B1BF" transform="rotate(22 34.424 137.77)" d="M32.808 137.77l1.616 1.616 1.616-1.615-1.616-1.616z"/><path id="Stroke-472" fill="#B2BECA" transform="rotate(22 34.424 137.77)" d="M34.424 139.386l1.616-1.615-1.616-1.616-1.616 1.616z"/><path id="Fill-474" fill-opacity=".8" fill="#A3B1BF" transform="rotate(22 35.623 149.366)" d="M34.006 149.366l1.617 1.616 1.616-1.616-1.616-1.616z"/><path id="Stroke-476" transform="rotate(22 35.623 149.366)" d="M34.006 149.366l1.617 1.616 1.616-1.616-1.616-1.616z"/><path id="Fill-478" fill-opacity=".8" fill="#A3B1BF" transform="rotate(22 34.17 145.947)" d="M32.555 145.947l1.616 1.616 1.616-1.616-1.616-1.615z"/><path id="Stroke-480" transform="rotate(22 34.17 145.947)" d="M32.555 145.947l1.616 1.616 1.616-1.616-1.616-1.615z"/><path id="Fill-482" fill-opacity=".8" fill="#A3B1BF" transform="rotate(22 32.72 142.529)" d="M31.103 142.529l1.616 1.616 1.617-1.616-1.617-1.616z"/><path id="Stroke-484" transform="rotate(22 32.72 142.529)" d="M31.103 142.529l1.616 1.616 1.617-1.616-1.617-1.616z"/><path id="Fill-486" fill-opacity=".8" fill="#A3B1BF" transform="rotate(22 31.268 139.11)" d="M29.651 139.11l1.617 1.616 1.616-1.616-1.616-1.616z"/><path id="Stroke-488" transform="rotate(22 31.268 139.11)" d="M29.651 139.11l1.617 1.616 1.616-1.616-1.616-1.616z"/><path id="Fill-490" fill-opacity=".8" fill="#A3B1BF" transform="rotate(22 32.466 150.706)" d="M30.85 150.706l1.616 1.615 1.617-1.615-1.617-1.616z"/><path id="Stroke-492" transform="rotate(22 32.466 150.706)" d="M30.85 150.706l1.616 1.615 1.617-1.615-1.617-1.616z"/><path id="Fill-494" fill-opacity=".8" fill="#A3B1BF" transform="rotate(22 31.015 147.287)" d="M29.399 147.287l1.616 1.616 1.616-1.616-1.616-1.616z"/><path id="Stroke-496" transform="rotate(22 31.015 147.287)" d="M29.399 147.287l1.616 1.616 1.616-1.616-1.616-1.616z"/><path id="Fill-498" fill-opacity=".8" fill="#A3B1BF" transform="rotate(22 29.563 143.868)" d="M27.947 143.868l1.616 1.616 1.616-1.616-1.616-1.616z"/><path id="Stroke-500" transform="rotate(22 29.563 143.868)" d="M27.947 143.868l1.616 1.616 1.616-1.616-1.616-1.616z"/><path id="Fill-502" fill-opacity=".8" fill="#A3B1BF" transform="rotate(22 28.112 140.45)" d="M26.495 140.45l1.617 1.615 1.616-1.616-1.616-1.616z"/><path id="Stroke-504" transform="rotate(22 28.112 140.45)" d="M26.495 140.45l1.617 1.615 1.616-1.616-1.616-1.616z"/><path id="Fill-506" fill-opacity=".8" fill="#A3B1BF" transform="rotate(22 29.31 152.045)" d="M27.694 152.045l1.616 1.616 1.617-1.616-1.617-1.616z"/><path id="Stroke-508" transform="rotate(22 29.31 152.045)" d="M27.694 152.045l1.616 1.616 1.617-1.616-1.617-1.616z"/><path id="Fill-510" fill-opacity=".8" fill="#A3B1BF" transform="rotate(22 27.859 148.626)" d="M26.242 148.626l1.617 1.616 1.616-1.616-1.616-1.616z"/><path id="Stroke-512" transform="rotate(22 27.859 148.626)" d="M26.242 148.626l1.617 1.616 1.616-1.616-1.616-1.616z"/><path id="Fill-514" fill-opacity=".8" fill="#A3B1BF" transform="rotate(22 26.407 145.207)" d="M24.79 145.207l1.617 1.616 1.616-1.616-1.616-1.616z"/><path id="Stroke-516" transform="rotate(22 26.407 145.207)" d="M24.79 145.207l1.617 1.616 1.616-1.616-1.616-1.616z"/><path id="Fill-518" fill-opacity=".8" fill="#A3B1BF" transform="rotate(22 24.955 141.788)" d="M23.34 141.788l1.615 1.616 1.617-1.616-1.617-1.615z"/><path id="Stroke-520" transform="rotate(22 24.955 141.788)" d="M23.34 141.788l1.615 1.616 1.617-1.616-1.617-1.615z"/><path id="Fill-522" fill-opacity=".8" fill="#A3B1BF" transform="rotate(22 26.154 153.384)" d="M24.538 153.384L26.154 155l1.616-1.616-1.616-1.616z"/><path id="Stroke-524" transform="rotate(22 26.154 153.384)" d="M24.538 153.384L26.154 155l1.616-1.616-1.616-1.616z"/><path id="Fill-526" fill-opacity=".8" fill="#A3B1BF" transform="rotate(22 24.703 149.965)" d="M23.086 149.965l1.617 1.616 1.616-1.616-1.616-1.616z"/><path id="Stroke-528" transform="rotate(22 24.703 149.965)" d="M23.086 149.965l1.617 1.616 1.616-1.616-1.616-1.616z"/><path id="Fill-530" fill-opacity=".8" fill="#A3B1BF" transform="rotate(22 23.251 146.547)" d="M21.635 146.547l1.616 1.616 1.616-1.616-1.616-1.616z"/><path id="Stroke-532" transform="rotate(22 23.251 146.547)" d="M21.635 146.547l1.616 1.616 1.616-1.616-1.616-1.616z"/><path id="Fill-534" fill-opacity=".8" fill="#A3B1BF" transform="rotate(22 21.8 143.128)" d="M20.183 143.128l1.616 1.616 1.617-1.616-1.617-1.616z"/><path id="Stroke-536" transform="rotate(22 21.8 143.128)" d="M20.183 143.128l1.616 1.616 1.617-1.616-1.617-1.616z"/><path d="M129.315 189.942c-2.942-2.942-4.825-5.83-4.204-6.45.62-.62 3.509 1.262 6.452 4.203 2.942 2.942 4.824 5.83 4.203 6.45-.62.621-3.508-1.261-6.451-4.203z" id="Fill-538" fill="#F5F5F5" transform="rotate(22 130.439 188.819)"/><path d="M128.976 189.44c-1.626-3.83-2.29-7.213-1.482-7.556.808-.343 2.781 2.484 4.408 6.314 1.625 3.83 2.29 7.213 1.481 7.555-.808.343-2.78-2.484-4.407-6.313z" id="Stroke-540" stroke="#A3B1BF" stroke-width="1.62" stroke-linejoin="round"/><path d="M136.083 187.715c-5.879-5.878-9.64-11.648-8.4-12.888 1.24-1.24 7.012 2.52 12.89 8.399 5.88 5.878 9.642 11.648 8.402 12.888-1.24 1.24-7.012-2.52-12.892-8.399z" id="Fill-542" fill="#F5F5F5" transform="rotate(22 138.329 185.47)"/><path d="M135.406 186.71c-3.249-7.652-4.575-14.41-2.96-15.096 1.614-.685 5.556 4.964 8.805 12.616 3.25 7.653 4.576 14.412 2.961 15.097-1.614.685-5.556-4.963-8.806-12.617z" id="Stroke-544" stroke="#A3B1BF" stroke-width="1.62" stroke-linejoin="round"/><path d="M146.697 183.65c-7.879-7.877-12.92-15.61-11.258-17.271 1.662-1.662 9.397 3.378 17.276 11.255 7.88 7.878 12.92 15.61 11.258 17.272-1.662 1.662-9.397-3.378-17.276-11.255z" id="Fill-546" fill-opacity=".35" fill="#F5F5F5" transform="rotate(22 149.706 180.643)"/><path d="M145.79 182.305c-4.355-10.256-6.132-19.314-3.968-20.232 2.163-.918 7.446 6.652 11.8 16.908 4.355 10.255 6.132 19.313 3.969 20.231-2.164.918-7.447-6.652-11.802-16.907z" id="Stroke-548" stroke="#A3B1BF" stroke-width="1.62" stroke-linejoin="round"/><path d="M65.228 90.235c-2.773-.203-4.817-.9-4.817-1.73 0-.828 2.04-1.525 4.808-1.729.196-2.77.869-4.81 1.67-4.81.8 0 1.472 2.04 1.668 4.81 2.769.204 4.809.9 4.809 1.73 0 .829-2.045 1.526-4.818 1.729-.207 2.706-.872 4.686-1.66 4.686-.788 0-1.453-1.98-1.66-4.686z" id="Oval-80-Copy-3" fill-opacity=".4" fill="#A3B1BF" opacity=".85" transform="rotate(20 66.888 88.443)"/><path d="M118.776 329.14l-.351.386a2.43 2.43 0 0 1-4.19-1.201l-.092-.512-.474-.214a2.43 2.43 0 0 1-.152-4.356l.458-.246.057-.518a2.43 2.43 0 0 1 4.095-1.49l.377.36.51-.106a2.43 2.43 0 0 1 2.682 3.434l-.225.469.258.451a2.43 2.43 0 0 1-2.437 3.614l-.516-.07z" id="Star-1-Copy-16" fill-opacity=".4" fill="#A3B1BF"/><path d="M432.838 120.005a1.523 1.523 0 0 1-2.21-1.606 1.523 1.523 0 0 1 .843-2.598 1.523 1.523 0 0 1 2.733 0 1.523 1.523 0 0 1 .844 2.598 1.523 1.523 0 0 1-2.21 1.606z" id="Star-1-Copy-18" fill-opacity=".4" fill="#A3B1BF" transform="rotate(-3 432.838 117.566)"/><path d="M99.773 38.762l-.746.393a2.43 2.43 0 0 1-3.526-2.562l.142-.83-.602-.587a2.43 2.43 0 0 1 1.346-4.145l.834-.122.373-.755a2.43 2.43 0 0 1 4.358 0l.373.755.833.122a2.43 2.43 0 0 1 1.347 4.145l-.603.587.143.83a2.43 2.43 0 0 1-3.526 2.562l-.746-.393z" id="Star-1-Copy-19" fill-opacity=".4" fill="#A3B1BF" transform="rotate(19 99.773 34.116)"/><path d="M396.631 305.744l-.533-.135a2.43 2.43 0 0 1-.906-4.263l.431-.34-.035-.548a2.43 2.43 0 0 1 3.774-2.179l.456.305.511-.204a2.43 2.43 0 0 1 3.239 2.916l-.15.53.352.422a2.43 2.43 0 0 1-1.773 3.981l-.548.022-.293.464a2.43 2.43 0 0 1-4.334-.455l-.19-.516z" id="Star-1-Copy-20" fill-opacity=".4" fill="#A3B1BF"/><path d="M439.756 146.348a1.523 1.523 0 0 1-2.21-1.606 1.523 1.523 0 0 1 .843-2.598 1.523 1.523 0 0 1 2.733 0 1.523 1.523 0 0 1 .844 2.598 1.523 1.523 0 0 1-2.21 1.606z" id="Star-1-Copy-21" fill-opacity=".4" fill="#A3B1BF" transform="rotate(-12 439.756 143.91)"/><path d="M244.622 220.613c32.537 0 58.914-26.37 58.914-58.902 0-32.53-26.377-58.901-58.914-58.901-32.538 0-58.914 26.37-58.914 58.901 0 32.531 26.376 58.902 58.914 58.902z" id="Oval-8-Copy-2" fill-opacity=".66" fill="#A3B1BF"/><path d="M245.346 141.06c-4.2 0-7.465 1.282-9.798 3.847-2.333 2.448-3.44 5.712-3.44 9.792h4.606c0-2.856.642-5.07 1.925-6.703 1.4-1.923 3.557-2.856 6.473-2.856 2.45 0 4.374.641 5.716 2.04 1.283 1.282 1.983 3.09 1.983 5.42 0 1.633-.584 3.148-1.75 4.605-.35.466-1.05 1.166-1.983 2.098-3.15 2.798-5.074 5.013-5.89 6.762-.7 1.457-1.05 3.147-1.05 5.07v1.341h4.666v-1.34c0-1.574.35-2.973 1.108-4.255.583-1.05 1.458-2.099 2.74-3.206 2.567-2.273 4.142-3.789 4.725-4.488 1.458-1.924 2.216-4.197 2.216-6.82 0-3.497-1.108-6.236-3.266-8.218-2.275-2.098-5.249-3.089-8.981-3.089zm-.875 35.496c-.992 0-1.808.291-2.508.99-.7.642-.991 1.458-.991 2.449 0 .99.291 1.807.991 2.506.7.641 1.516.991 2.508.991.991 0 1.808-.35 2.508-.99.7-.642 1.05-1.458 1.05-2.507 0-.99-.35-1.807-.992-2.448-.7-.7-1.575-.99-2.566-.99z" id="？" fill="#FFF"/><path d="M223.262 133.14c5.815-3.357 16.37-7.312 13.012-13.126-3.358-5.815-15.708-4.97-21.524-1.613-5.815 3.357-12.02 13.223-8.662 19.037 3.357 5.815 11.358-.941 17.174-4.298" id="Oval-8-Copy-2" fill="#FAFAFA"/><path d="M249.679 119.82a4.863 4.863 0 1 0 .001-9.726 4.863 4.863 0 0 0-.001 9.727z" id="Oval-10-Copy" fill="#FAFAFA"/><path d="M421.5 321.5l1.5 1.5" id="Line-2" stroke="#979797" stroke-linecap="square"/></g></g></g></svg>